<svg id="Layer_1" enable-background="new 0 0 256 256" height="512" viewBox="0 0 256 256" width="512" xmlns="http://www.w3.org/2000/svg"><path d="m4 43.588h248v168.825h-248z" fill="#f4efed"/><path d="m242 43.588h10v168.825h-10z" fill="#d6d1cf"/><path d="m4 43.588h10v168.825h-10z" fill="#fff"/><path d="m4 43.588h248v42.206h-248z" fill="#7bac51"/><path d="m242 43.588h10v42.206h-10z" fill="#5d8e33"/><path d="m4 43.588h10v42.206h-10z" fill="#99ca6f"/><path d="m18.882 102.312h37.786v37.786h-37.786z" fill="#ff4397"/><path d="m18.882 157.645h37.786v37.786h-37.786z" fill="#fcc24c"/><g fill="#690589"><path d="m252 214.412h-248c-1.104 0-2-.896-2-2v-168.824c0-1.104.896-2 2-2h248c1.104 0 2 .896 2 2v168.824c0 1.105-.896 2-2 2zm-246-4h244v-164.824h-244z"/><path d="m252 87.794h-248c-1.104 0-2-.896-2-2v-42.206c0-1.104.896-2 2-2h248c1.104 0 2 .896 2 2v42.206c0 1.104-.896 2-2 2zm-246-4h244v-38.206h-244z"/><path d="m12 72.648c-1.104 0-2-.896-2-2v-12c0-1.104.896-2 2-2s2 .896 2 2v12c0 1.104-.896 2-2 2z"/><path d="m71.899 72.957c-3.734 0-6.703-3.015-6.703-6.703v-8.257c0-.719.557-1.276 1.275-1.276.695 0 1.299.557 1.299 1.276v8.257c0 2.272 1.856 4.128 4.129 4.128 2.296 0 4.128-1.855 4.128-4.128v-8.257c0-.719.58-1.276 1.299-1.276s1.275.557 1.275 1.276v8.257c.001 3.687-2.991 6.703-6.702 6.703z"/><path d="m89.478 66.648h-2.853v5.033c0 .696-.579 1.276-1.299 1.276-.695 0-1.275-.58-1.275-1.276v-13.684c0-.719.58-1.276 1.275-1.276h.023 4.128c2.761 0 4.987 2.227 4.987 4.987.001 2.713-2.226 4.94-4.986 4.94zm-2.853-2.575h2.853c1.346 0 2.39-1.066 2.412-2.365-.023-1.346-1.066-2.412-2.412-2.412h-2.853z"/><path d="m96.853 64.607c.023-4.592 3.873-8.327 8.512-8.35 2.041 0 3.896.672 5.357 1.809.557.464.649 1.275.232 1.855-.464.58-1.322.673-1.855.255-1.021-.835-2.297-1.275-3.734-1.275-1.601 0-3.085.649-4.175 1.67-1.044 1.067-1.693 2.458-1.693 4.036 0 1.577.649 3.015 1.693 4.036 1.09 1.02 2.574 1.67 4.175 1.67 1.438 0 2.69-.44 3.734-1.275.533-.394 1.392-.302 1.855.255.417.58.324 1.415-.232 1.856-1.461 1.137-3.316 1.809-5.357 1.809-4.639-.001-8.489-3.735-8.512-8.351z"/><path d="m127.792 58.739c1.438 1.53 2.343 3.571 2.343 5.868 0 2.296-.905 4.36-2.343 5.868-1.368 1.508-3.409 2.482-5.543 2.482-2.227 0-4.268-.974-5.683-2.482-1.438-1.507-2.296-3.571-2.296-5.868 0-2.296.857-4.337 2.296-5.868 1.415-1.531 3.456-2.482 5.683-2.482 2.134 0 4.175.951 5.543 2.482zm-.302 5.868c0-1.577-.626-3.038-1.577-4.059-.974-1.043-2.272-1.646-3.664-1.646-1.484 0-2.783.603-3.758 1.646-.974 1.021-1.577 2.482-1.577 4.059s.604 3.039 1.577 4.036c.975 1.044 2.273 1.67 3.758 1.67 1.392 0 2.69-.626 3.664-1.67.951-.997 1.577-2.459 1.577-4.036z"/><path d="m147.737 57.997v13.684c0 .696-.604 1.276-1.299 1.276-.72 0-1.276-.58-1.276-1.276v-9.764l-3.34 4.639c-.255.348-.626.534-1.044.534h-.022-.023c-.417 0-.812-.186-1.067-.534l-3.316-4.639v9.764c0 .696-.58 1.276-1.299 1.276-.695 0-1.275-.58-1.275-1.276v-13.684c0-.696.58-1.276 1.275-1.276h.07c.371 0 .788.185 1.02.534l4.616 6.401 4.615-6.401c.255-.348.626-.534 1.044-.534h.023c.695.023 1.298.58 1.298 1.276z"/><path d="m153.51 57.997c0-.719.557-1.276 1.276-1.276.695 0 1.299.557 1.299 1.276v13.684c0 .719-.604 1.276-1.299 1.276-.72 0-1.276-.557-1.276-1.276z"/><path d="m162.972 71.681c0 .696-.579 1.276-1.252 1.276-.719 0-1.275-.58-1.275-1.276v-13.475s0 0 0-.023c-.023-.395.162-.812.51-1.067.58-.394 1.369-.278 1.763.278l7.491 10.368v-9.556c0-.672.557-1.252 1.253-1.252s1.275.58 1.275 1.252v13.475c0 .696-.579 1.276-1.275 1.276-.371 0-.719-.186-.951-.464-.046-.046-.093-.093-.116-.139l-7.422-10.298v9.625z"/><path d="m176.424 64.63c0-4.662 3.85-8.373 8.558-8.373 1.972 0 3.851.672 5.289 1.809.603.44.695 1.299.255 1.879-.44.557-1.299.672-1.879.208-.997-.765-2.272-1.252-3.665-1.252-1.67 0-3.131.626-4.174 1.693-1.091 1.044-1.74 2.458-1.74 4.035 0 1.531.649 2.946 1.74 3.989 1.043 1.067 2.504 1.693 4.174 1.693 1.16 0 2.25-.348 3.178-.881v-3.177h-3.316c-.719 0-1.322-.604-1.322-1.322 0-.742.604-1.299 1.322-1.299h4.569.023.023c.742 0 1.346.557 1.346 1.299v5.126c0 .162-.047.255-.07.394-.022.046-.022.07-.046.116v.023c-.069.209-.209.395-.44.557-1.461 1.137-3.294 1.809-5.266 1.809-4.71.001-8.559-3.687-8.559-8.326z"/><path d="m56.668 142.097h-37.785c-1.104 0-2-.896-2-2v-37.786c0-1.104.896-2 2-2h37.785c1.104 0 2 .896 2 2v37.786c0 1.105-.896 2-2 2zm-35.785-4h33.785v-33.786h-33.785z"/><path d="m56.668 197.431h-37.785c-1.104 0-2-.896-2-2v-37.786c0-1.104.896-2 2-2h37.785c1.104 0 2 .896 2 2v37.786c0 1.105-.896 2-2 2zm-35.785-4h33.785v-33.786h-33.785z"/><path d="m181.399 104.312h-111.362c-1.104 0-2-.896-2-2s.896-2 2-2h111.362c1.104 0 2 .896 2 2s-.895 2-2 2z"/><path d="m181.399 123.205h-111.362c-1.104 0-2-.896-2-2s.896-2 2-2h111.362c1.104 0 2 .896 2 2s-.895 2-2 2z"/><path d="m237.117 142.097h-167.08c-1.104 0-2-.896-2-2s.896-2 2-2h167.08c1.104 0 2 .896 2 2s-.895 2-2 2z"/><path d="m181.399 159.645h-111.362c-1.104 0-2-.896-2-2s.896-2 2-2h111.362c1.104 0 2 .896 2 2s-.895 2-2 2z"/><path d="m181.399 178.538h-111.362c-1.104 0-2-.896-2-2s.896-2 2-2h111.362c1.104 0 2 .896 2 2s-.895 2-2 2z"/><path d="m237.117 197.431h-167.08c-1.104 0-2-.896-2-2s.896-2 2-2h167.08c1.104 0 2 .896 2 2s-.895 2-2 2z"/></g><path d="m50.21 114.309-6.217-9.18-6.218-9.181-6.217 9.181-6.218 9.18h7.975v18.152h8.921v-18.152z" fill="#f4efed"/><path d="m42.236 134.46h-8.922c-1.104 0-2-.896-2-2v-16.151h-5.974c-.74 0-1.42-.409-1.767-1.062s-.305-1.446.11-2.059l12.435-18.361c.372-.549.993-.878 1.656-.878s1.284.329 1.656.878l12.435 18.361c.415.613.457 1.405.11 2.059s-1.026 1.062-1.767 1.062h-5.974v16.151c.002 1.105-.893 2-1.998 2zm-6.922-4h4.922v-16.151c0-1.104.896-2 2-2h4.204l-8.665-12.794-8.665 12.794h4.204c1.104 0 2 .896 2 2z" fill="#690589"/><path d="m50.21 170.279-6.217-9.18-6.218-9.18-6.217 9.18-6.218 9.18h7.975v18.152h8.921v-18.152z" fill="#f4efed"/><path d="m42.236 190.431h-8.922c-1.104 0-2-.896-2-2v-16.152h-5.974c-.74 0-1.42-.409-1.767-1.062-.347-.654-.305-1.446.11-2.059l12.435-18.36c.372-.549.993-.878 1.656-.878s1.284.329 1.656.878l12.435 18.36c.415.613.457 1.405.11 2.059s-1.026 1.062-1.767 1.062h-5.974v16.152c.002 1.105-.893 2-1.998 2zm-6.922-4h4.922v-16.152c0-1.104.896-2 2-2h4.204l-8.665-12.794-8.665 12.794h4.204c1.104 0 2 .896 2 2z" fill="#690589"/></svg>