<svg id="Capa_1" enable-background="new 0 0 512 512" height="512" viewBox="0 0 512 512" width="512" xmlns="http://www.w3.org/2000/svg"><g><path d="m512 166v300h-362l-15-30-15 30h-120v-300z" fill="#ff6c6c"/><path d="m512 166v300h-362l-15-30v-270z" fill="#e63950"/><g><g><path d="m285 316c-24.814 0-45-20.186-45-45s20.186-45 45-45 45 20.186 45 45-20.186 45-45 45zm0-60c-8.262 0-15 6.724-15 15s6.738 15 15 15 15-6.724 15-15-6.738-15-15-15z" fill="#ff9100"/></g></g><g><g><path d="m405 406c-24.814 0-45-20.186-45-45s20.186-45 45-45 45 20.186 45 45-20.186 45-45 45zm0-60c-8.262 0-15 6.724-15 15s6.738 15 15 15 15-6.724 15-15-6.738-15-15-15z" fill="#ff9100"/></g></g><g><g><path d="m248.953 300.993h192.094v30.015h-192.094z" fill="#ff9100" transform="matrix(.625 -.781 .781 .625 -117.274 387.996)"/></g></g><g><path d="m120 406h30v60h-30z" fill="#ffb64c"/></g><g><path d="m120 316h30v60h-30z" fill="#ffb64c"/></g><g><path d="m120 166h30v120h-30z" fill="#ffb64c"/></g><g fill="#ff9100"><path d="m135 316h15v60h-15z"/><path d="m135 406h15v60h-15z"/><path d="m135 166h15v120h-15z"/></g><path d="m210 46c-25.201 0-47.999 15.899-56.4 39.6l-18.6 51.299-18.6-51.299c-8.401-23.701-31.199-39.6-56.4-39.6-32.999 0-60 26.999-60 60 0 25.199 15.901 47.999 39.6 56.4l72.299 26.1-49.499 74.099 25.199 16.8 47.401-71.4 47.401 71.4 25.199-16.8-49.499-74.099 72.299-26.1c23.699-8.401 39.6-31.201 39.6-56.4 0-33.001-27.001-60-60-60zm-160.201 88.2c-11.999-4.2-19.799-15.601-19.799-28.2 0-16.5 13.5-30 30-30 12.599 0 24 8.099 28.2 19.799l21.899 60.3zm170.402 0-60.3 21.899 21.899-60.3c4.2-11.7 15.601-19.799 28.2-19.799 16.5 0 30 13.5 30 30 0 12.599-7.8 24-19.799 28.2z" fill="#ffd396"/><path d="m210 46c-25.201 0-47.999 15.899-56.4 39.6l-18.6 51.299v71.1l47.401 71.4 25.199-16.8-49.499-74.099 72.299-26.1c23.699-8.401 39.6-31.201 39.6-56.4 0-33.001-27.001-60-60-60zm10.201 88.2-60.3 21.899 21.899-60.3c4.2-11.7 15.601-19.799 28.2-19.799 16.5 0 30 13.5 30 30 0 12.599-7.8 24-19.799 28.2z" fill="#ffb64c"/></g></svg>